                                                                        S      1
,,13HSHEAR_TEST v2,12HSHEAR3D_TEST,7Hunknown,7Hunknown,32,38,7,99,15,,  G      1
1.,6,1HM,1,0.08,15H20240112.085332,1D-5,10000.,7Hunknown,7Hunknown,11,0,G      2
15H20240110.195718;                                                     G      3
     186       1                                                00000000D      1
     186             -87       1       0                               0D      2
     514       2                                                00010000D      3
     514                       1       1                               0D      4
     510       3                                                00010000D      5
     510             -87       1       1                               0D      6
     510       4                                                00010000D      7
     510             -87       1       1                               0D      8
     510       5                                                00010000D      9
     510             -87       1       1                               0D     10
     510       6                                                00010000D     11
     510             -87       1       1                               0D     12
     510       7                                                00010000D     13
     510             -87       1       1                               0D     14
     510       8                                                00010000D     15
     510             -87       1       1                               0D     16
     508       9                                                00010000D     17
     508                       1       1                               0D     18
     508      10                                                00010000D     19
     508                       1       1                               0D     20
     508      11                                                00010000D     21
     508                       1       1                               0D     22
     508      12                                                00010000D     23
     508                       1       1                               0D     24
     508      13                                                00010000D     25
     508                       1       1                               0D     26
     508      14                                                00010000D     27
     508                       1       1                               0D     28
     502      15                                                00010000D     29
     502                       2       1                               0D     30
     504      17                                                00010001D     31
     504                       3       1                               0D     32
     143      20                                                00000000D     33
     143       0     -87       1       0                               0D     34
     141      21                                                00010000D     35
     141       0               1       0                               0D     36
     126      22                                                00010000D     37
     126       0               2       0                               0D     38
     126      24                                                00010000D     39
     126       0               2       0                               0D     40
     126      26                                                00010000D     41
     126       0               2       0                               0D     42
     126      28                                                00010000D     43
     126       0               2       0                               0D     44
     126      30                                                00010000D     45
     126       0               2       0                               0D     46
     126      32                                                00010000D     47
     126       0               2       0                               0D     48
     126      34                                                00010000D     49
     126       0               2       0                               0D     50
     126      36                                                00010000D     51
     126       0               2       0                               0D     52
     126      38                                                00010000D     53
     126       0               2       0                               0D     54
     126      40                                                00010000D     55
     126       0               2       0                               0D     56
     126      42                                                00010000D     57
     126       0               2       0                               0D     58
     126      44                                                00010000D     59
     126       0               2       0                               0D     60
     126      46                                                00010000D     61
     126       0               2       0                               0D     62
     126      48                                                00010000D     63
     126       0               2       0                               0D     64
     126      50                                                00010000D     65
     126       0               2       0                               0D     66
     126      52                                                00010000D     67
     126       0               2       0                               0D     68
     128      54                                                00010000D     69
     128       0               5       0                               0D     70
     128      59                                                00010000D     71
     128       0     -87       4       0                               0D     72
     128      63                                                00010000D     73
     128       0     -87       4       0                               0D     74
     128      67                                                00010000D     75
     128       0     -87       4       0                               0D     76
     128      71                                                00010000D     77
     128       0     -87       4       0                               0D     78
     128      75                                                00010000D     79
     128       0     -87       5       0                               0D     80
     128      80                                                00010000D     81
     128       0     -87       5       0                               0D     82
     406      85                                                00000000D     83
     406                       1      15                               0D     84
     406      86                                                00000000D     85
     406                       1      15                               0D     86
     314      87                                                00000200D     87
     314                       2       0                               0D     88
186,3,1,0,0,1,85;                                                      1P      1
514,6,5,1,7,1,9,1,11,1,13,1,15,1;                                      3P      2
510,71,1,1,17;                                                         5P      3
510,73,1,1,19;                                                         7P      4
510,75,1,1,21;                                                         9P      5
510,77,1,1,23;                                                        11P      6
510,79,1,1,25;                                                        13P      7
510,81,1,1,27;                                                        15P      8
508,4,0,31,1,1,0,0,31,2,1,0,0,31,3,0,0,0,31,4,0,0;                    17P      9
508,4,0,31,5,0,0,0,31,4,1,0,0,31,6,0,0,0,31,7,0,0;                    19P     10
508,4,0,31,8,0,0,0,31,7,1,0,0,31,9,0,0,0,31,10,0,0;                   21P     11
508,4,0,31,11,1,0,0,31,10,1,0,0,31,12,0,0,0,31,2,0,0;                 23P     12
508,4,0,31,12,1,0,0,31,9,1,0,0,31,6,1,0,0,31,3,1,0;                   25P     13
508,4,0,31,11,0,0,0,31,1,0,0,0,31,5,1,0,0,31,8,1,0;                   27P     14
502,8,0.,5.,0.,0.,-5.,0.,0.,-5.,2.,0.,5.,2.,30.649,5.,0.,30.649,      29P     15
5.,2.,30.649,-5.,0.,30.649,-5.,2.;                                    29P     16
504,12,45,29,1,29,2,47,29,2,29,3,49,29,4,29,3,51,29,1,29,4,53,        31P     17
29,1,29,5,55,29,6,29,4,57,29,5,29,6,59,29,5,29,7,61,29,8,29,6,        31P     18
63,29,7,29,8,65,29,2,29,7,67,29,3,29,8;                               31P     19
143,0,69,1,35,0,1,83;                                                 33P     20
141,0,1,69,4,37,1,0,39,2,0,41,2,0,43,1,0;                             35P     21
126,1,1,0,0,1,0,0.,0.,3064.9,3064.9,1.,1.,0.,-5.,0.,30.649,-5.,       37P     22
0.,0.,3064.9,0.,0.,0.;                                                37P     23
126,1,1,0,0,1,0,0.,0.,1000.,1000.,1.,1.,30.649,5.,0.,30.649,-5.,      39P     24
0.,0.,1000.,0.,0.,0.;                                                 39P     25
126,1,1,0,0,1,0,0.,0.,3064.9,3064.9,1.,1.,0.,5.,0.,30.649,5.,0.,      41P     26
0.,3064.9,0.,0.,0.;                                                   41P     27
126,1,1,0,0,1,0,0.,0.,1000.,1000.,1.,1.,0.,5.,0.,0.,-5.,0.,0.,        43P     28
1000.,0.,0.,0.;                                                       43P     29
126,1,1,0,0,1,0,0.,0.,1000.,1000.,1.,1.,0.,5.,0.,0.,-5.,0.,0.,        45P     30
1000.,0.,0.,0.;                                                       45P     31
126,1,1,0,0,1,0,0.,0.,200.,200.,1.,1.,0.,-5.,0.,0.,-5.,2.,0.,         47P     32
200.,0.,0.,0.;                                                        47P     33
126,1,1,0,0,1,0,0.,0.,1000.,1000.,1.,1.,0.,5.,2.,0.,-5.,2.,0.,        49P     34
1000.,0.,0.,0.;                                                       49P     35
126,1,1,0,0,1,0,0.,0.,200.,200.,1.,1.,0.,5.,0.,0.,5.,2.,0.,200.,      51P     36
0.,0.,0.;                                                             51P     37
126,1,1,0,0,1,0,0.,0.,3064.9,3064.9,1.,1.,0.,5.,0.,30.649,5.,0.,      53P     38
0.,3064.9,0.,0.,0.;                                                   53P     39
126,1,1,0,0,1,0,-3064.9,-3064.9,0.,0.,1.,1.,30.649,5.,2.,0.,5.,       55P     40
2.,-3064.9,0.,0.,0.,0.;                                               55P     41
126,1,1,0,0,1,0,0.,0.,200.,200.,1.,1.,30.649,5.,0.,30.649,5.,2.,      57P     42
0.,200.,0.,0.,0.;                                                     57P     43
126,1,1,0,0,1,0,0.,0.,1000.,1000.,1.,1.,30.649,5.,0.,30.649,-5.,      59P     44
0.,0.,1000.,0.,0.,0.;                                                 59P     45
126,1,1,0,0,1,0,-1000.,-1000.,0.,0.,1.,1.,30.649,-5.,2.,30.649,       61P     46
5.,2.,-1000.,0.,0.,0.,0.;                                             61P     47
126,1,1,0,0,1,0,0.,0.,200.,200.,1.,1.,30.649,-5.,0.,30.649,-5.,       63P     48
2.,0.,200.,0.,0.,0.;                                                  63P     49
126,1,1,0,0,1,0,0.,0.,3064.9,3064.9,1.,1.,0.,-5.,0.,30.649,-5.,       65P     50
0.,0.,3064.9,0.,0.,0.;                                                65P     51
126,1,1,0,0,1,0,0.,0.,3064.9,3064.9,1.,1.,0.,-5.,2.,30.649,-5.,       67P     52
2.,0.,3064.9,0.,0.,0.;                                                67P     53
128,1,1,1,1,0,0,1,0,0,-1532.451,-1532.451,1532.451,1532.451,          69P     54
-500.001,-500.001,500.001,500.001,1.,1.,1.,1.,                        69P     55
-9.99999999976353D-6,-5.00001,0.,30.64901,-5.00001,0.,                69P     56
-9.99999999976353D-6,5.00001,0.,30.64901,5.00001,0.,-1532.451,        69P     57
1532.451,-500.001,500.001;                                            69P     58
128,1,1,1,1,0,0,1,0,0,-0.001,-0.001,1000.001,1000.001,-0.001,         71P     59
-0.001,200.001,200.001,1.,1.,1.,1.,0.,5.00001,-1D-5,0.,-5.00001,      71P     60
-1D-5,0.,5.00001,2.00001,0.,-5.00001,2.00001,-0.001,1000.001,         71P     61
-0.001,200.001;                                                       71P     62
128,1,1,1,1,0,0,1,0,0,-0.001,-0.001,3064.901,3064.901,-0.001,         73P     63
-0.001,200.001,200.001,1.,1.,1.,1.,30.64901,5.,-1D-5,                 73P     64
-1.00000000020373D-5,5.,-1D-5,30.64901,5.,2.00001,                    73P     65
-1.00000000020373D-5,5.,2.00001,-0.001,3064.901,-0.001,200.001;       73P     66
128,1,1,1,1,0,0,1,0,0,-0.001,-0.001,1000.001,1000.001,-0.001,         75P     67
-0.001,200.001,200.001,1.,1.,1.,1.,30.649,-5.00001,-1D-5,30.649,      75P     68
5.00001,-1D-5,30.649,-5.00001,2.00001,30.649,5.00001,2.00001,         75P     69
-0.001,1000.001,-0.001,200.001;                                       75P     70
128,1,1,1,1,0,0,1,0,0,-0.001,-0.001,3064.901,3064.901,-0.001,         77P     71
-0.001,200.001,200.001,1.,1.,1.,1.,-1D-5,-5.,-1D-5,30.64901,-5.,      77P     72
-1D-5,-1D-5,-5.,2.00001,30.64901,-5.,2.00001,-0.001,3064.901,         77P     73
-0.001,200.001;                                                       77P     74
128,1,1,1,1,0,0,1,0,0,-1532.451,-1532.451,1532.451,1532.451,          79P     75
-500.001,-500.001,500.001,500.001,1.,1.,1.,1.,                        79P     76
-9.99999999976353D-6,-5.00001,2.,30.64901,-5.00001,2.,                79P     77
-9.99999999976353D-6,5.00001,2.,30.64901,5.00001,2.,-1532.451,        79P     78
1532.451,-500.001,500.001;                                            79P     79
128,1,1,1,1,0,0,1,0,0,-1532.451,-1532.451,1532.451,1532.451,          81P     80
-500.001,-500.001,500.001,500.001,1.,1.,1.,1.,30.64901,-5.00001,      81P     81
0.,-9.99999999976353D-6,-5.00001,0.,30.64901,5.00001,0.,              81P     82
-9.99999999976353D-6,5.00001,0.,-1532.451,1532.451,-500.001,          81P     83
500.001;                                                              81P     84
406,1,5HBody2;                                                        83P     85
406,1,5HBody3;                                                        85P     86
314,62.7450980392157,62.7450980392157,62.7450980392157,13HSteel       87P     87
- Satin;                                                              87P     88
S      1G      3D     88P     88                                        T      1
